<?xml version="1.0" standalone="no"?>
<!DOCTYPE svg PUBLIC "-//W3C//DTD SVG 20010904//EN"
 "http://www.w3.org/TR/2001/REC-SVG-20010904/DTD/svg10.dtd">
<svg version="1.0" xmlns="http://www.w3.org/2000/svg"
 width="330.000000pt" height="330.000000pt" viewBox="0 0 330.000000 330.000000"
 preserveAspectRatio="xMidYMid meet">
<metadata>
Created by potrace 1.14, written by Peter Selinger 2001-2017
</metadata>
<g transform="translate(0.000000,330.000000) scale(0.100000,-0.100000)"
fill="#000000" stroke="none">
<path d="M725 3279 c-364 -104 -647 -413 -715 -784 -8 -42 -10 -309 -8 -880
l3 -820 23 -74 c103 -336 336 -574 672 -687 l85 -29 848 -3 c823 -2 850 -2
933 18 187 44 333 127 474 270 107 108 174 211 226 348 l33 87 1 923 c0 905 0
924 -21 984 -70 208 -211 391 -395 514 -96 64 -166 96 -281 129 l-85 25 -862
-1 c-828 0 -864 -1 -931 -20z m1820 -1030 c203 -28 315 -106 315 -218 0 -54
-76 -90 -130 -61 -10 6 -29 28 -42 51 -14 25 -41 51 -68 67 -39 23 -59 27
-146 30 -78 3 -115 0 -154 -13 -137 -46 -190 -177 -109 -269 38 -44 83 -64
267 -120 241 -73 333 -130 381 -236 30 -65 28 -169 -3 -235 -67 -144 -287
-235 -503 -208 -155 20 -304 85 -350 153 -29 42 -29 65 2 95 38 39 92 34 147
-12 106 -89 278 -128 396 -89 109 36 172 106 172 190 0 44 -4 53 -42 91 -46
45 -60 51 -303 120 -220 64 -304 115 -347 212 -22 51 -26 154 -7 211 40 124
152 208 312 237 92 17 119 17 212 4z m-1922 -39 c-2 -14 -14 -110 -28 -215
-66 -479 -33 -786 88 -828 31 -11 79 5 112 39 70 70 108 191 176 554 52 284
62 316 102 340 18 11 44 20 58 20 54 0 56 -6 74 -275 24 -365 51 -498 121
-589 44 -58 79 -76 145 -76 46 0 55 4 89 38 44 44 71 120 97 267 24 139 25
551 2 643 l-16 62 29 21 c40 29 91 29 122 0 49 -46 77 -196 77 -421 1 -417
-134 -682 -366 -720 -107 -17 -225 24 -291 102 -38 47 -75 123 -104 221 l-27
89 -17 -49 c-61 -169 -105 -245 -176 -306 -128 -109 -336 -102 -421 16 -55 76
-72 152 -76 352 -5 191 10 348 57 598 26 136 37 148 125 144 47 -2 50 -4 48
-27z"/>
</g>
</svg>
